<?xml version="1.0" standalone="no"?>
<!DOCTYPE svg PUBLIC "-//W3C//DTD SVG 20010904//EN"
 "http://www.w3.org/TR/2001/REC-SVG-20010904/DTD/svg10.dtd">
<svg version="1.0" xmlns="http://www.w3.org/2000/svg"
 width="3841.000000pt" height="3841.000000pt" viewBox="0 0 3841.000000 3841.000000"
 preserveAspectRatio="xMidYMid meet">
<metadata>
Created by potrace 1.11, written by Peter Selinger 2001-2013
</metadata>
<g transform="translate(0.000000,3841.000000) scale(0.100000,-0.100000)"
fill="#000000" stroke="none">
<path d="M19198 33602 l-4798 -4797 -2 -7029 -3 -7029 -51 49 c-28 27 -111
105 -184 174 -157 147 -288 271 -340 320 -31 30 -105 100 -336 317 -193 182
-340 320 -408 385 -45 42 -106 100 -136 128 -147 138 -297 279 -340 320 -26
25 -105 100 -176 167 -172 161 -189 178 -344 323 -73 69 -154 145 -180 170
-26 25 -105 100 -176 166 -156 147 -181 171 -354 335 -74 70 -155 146 -180
169 -25 23 -103 97 -173 163 -71 67 -146 138 -166 157 -21 19 -100 94 -177
166 -76 73 -159 151 -184 174 -68 64 -298 280 -340 320 -59 57 -311 294 -360
340 -25 23 -101 95 -170 160 -69 65 -145 137 -170 160 -25 24 -110 104 -190
180 -187 177 -212 201 -350 330 -63 59 -138 130 -166 157 -53 50 -276 260
-354 333 -41 38 -235 221 -350 330 -42 40 -227 214 -350 330 -25 23 -101 95
-170 160 -69 65 -145 137 -170 160 -25 24 -79 75 -120 114 -42 39 -147 139
-235 221 -88 83 -195 184 -240 226 -44 42 -99 94 -121 115 -23 22 -99 94 -170
160 -71 67 -149 141 -174 164 -25 23 -103 97 -174 164 -70 66 -151 143 -180
169 -28 27 -107 102 -176 167 -69 65 -145 137 -170 160 -25 23 -106 100 -180
170 -74 70 -153 144 -175 165 -22 20 -105 99 -185 174 -80 76 -167 159 -195
184 l-50 46 -3 -4522 -2 -4523 -2400 -2399 -2400 -2400 0 -4972 0 -4973 19200
0 19200 0 0 2168 0 2167 -2400 2400 -2400 2400 0 2804 0 2804 -54 51 c-65 62
-293 277 -356 336 -40 37 -218 205 -336 317 -22 21 -100 94 -173 163 -73 69
-157 148 -186 175 -29 28 -108 102 -176 166 -139 131 -180 170 -359 339 -69
65 -139 131 -155 146 -17 16 -100 94 -185 174 -84 80 -170 161 -191 180 -20
19 -97 91 -170 160 -72 69 -151 143 -174 165 -24 22 -99 92 -166 157 -132 123
-149 139 -358 337 -127 119 -244 229 -351 331 -26 25 -105 99 -175 165 -70 66
-149 140 -174 163 -83 79 -303 286 -341 322 -33 31 -186 175 -415 391 -38 37
-90 86 -115 109 -25 23 -106 100 -180 170 -74 70 -151 142 -170 160 -19 18
-96 90 -170 160 -74 71 -155 147 -180 170 -25 23 -106 99 -180 170 -74 70
-153 144 -175 165 -22 20 -105 98 -184 173 -80 76 -159 150 -175 166 -17 15
-89 83 -159 150 -71 66 -146 137 -166 156 -21 19 -107 100 -191 180 -85 80
-166 156 -181 170 -15 14 -96 90 -180 170 -161 152 -254 240 -329 310 -25 23
-103 98 -175 165 -71 68 -148 140 -170 160 -22 21 -101 95 -175 166 -74 70
-156 147 -181 171 -25 23 -106 99 -179 168 -73 69 -154 145 -179 168 -232 218
-327 308 -396 374 -44 42 -100 95 -125 118 -25 23 -79 74 -121 113 -41 40
-142 135 -224 212 -81 77 -173 164 -204 193 -31 30 -98 92 -148 139 l-93 86
-2 7304 -3 7303 -4797 -4798z"/>
</g>
</svg>
